<svg width="512" height="512" viewBox="0 0 512 512" fill="none" xmlns="http://www.w3.org/2000/svg">
<path d="M280.303 143.303C283.232 140.374 283.232 135.626 280.303 132.697L232.574 84.967C229.645 82.0381 224.896 82.0381 221.967 84.967C219.038 87.8959 219.038 92.6447 221.967 95.5736L264.393 138L221.967 180.426C219.038 183.355 219.038 188.104 221.967 191.033C224.896 193.962 229.645 193.962 232.574 191.033L280.303 143.303ZM35 145.5H275V130.5H35V145.5Z" fill="#3F7BFF"/>
<path d="M280.303 363.303C283.232 360.374 283.232 355.626 280.303 352.697L232.574 304.967C229.645 302.038 224.896 302.038 221.967 304.967C219.038 307.896 219.038 312.645 221.967 315.574L264.393 358L221.967 400.426C219.038 403.355 219.038 408.104 221.967 411.033C224.896 413.962 229.645 413.962 232.574 411.033L280.303 363.303ZM35 365.5H275V350.5H35V365.5Z" fill="#FF9A34"/>
<path d="M353.316 139.059C353.316 144.074 352.473 148.457 350.785 152.207C349.098 155.934 346.707 158.781 343.613 160.75C340.52 162.719 336.91 163.703 332.785 163.703C328.754 163.703 325.18 162.719 322.062 160.75C318.945 158.758 316.52 155.934 314.785 152.277C313.074 148.598 312.195 144.344 312.148 139.516V135.824C312.148 130.902 313.004 126.555 314.715 122.781C316.426 119.008 318.84 116.125 321.957 114.133C325.098 112.117 328.684 111.109 332.715 111.109C336.816 111.109 340.426 112.105 343.543 114.098C346.684 116.066 349.098 118.938 350.785 122.711C352.473 126.461 353.316 130.832 353.316 135.824V139.059ZM346.602 135.754C346.602 129.684 345.383 125.031 342.945 121.797C340.508 118.539 337.098 116.91 332.715 116.91C328.449 116.91 325.086 118.539 322.625 121.797C320.188 125.031 318.934 129.531 318.863 135.297V139.059C318.863 144.941 320.094 149.57 322.555 152.945C325.039 156.297 328.449 157.973 332.785 157.973C337.145 157.973 340.52 156.391 342.91 153.227C345.301 150.039 346.531 145.48 346.602 139.551V135.754ZM382.215 142.293H370.191V163H363.406V111.812H380.352C386.117 111.812 390.547 113.125 393.641 115.75C396.758 118.375 398.316 122.195 398.316 127.211C398.316 130.398 397.449 133.176 395.715 135.543C394.004 137.91 391.613 139.68 388.543 140.852L400.566 162.578V163H393.324L382.215 142.293ZM370.191 136.773H380.562C383.914 136.773 386.574 135.906 388.543 134.172C390.535 132.438 391.531 130.117 391.531 127.211C391.531 124.047 390.582 121.621 388.684 119.934C386.809 118.246 384.09 117.391 380.527 117.367H370.191V136.773ZM415.051 163H408.301V111.812H415.051V163ZM465.219 156.285C463.484 158.77 461.059 160.633 457.941 161.875C454.848 163.094 451.238 163.703 447.113 163.703C442.941 163.703 439.238 162.73 436.004 160.785C432.77 158.816 430.262 156.027 428.48 152.418C426.723 148.809 425.82 144.625 425.773 139.867V135.402C425.773 127.691 427.566 121.715 431.152 117.473C434.762 113.23 439.824 111.109 446.34 111.109C451.684 111.109 455.984 112.48 459.242 115.223C462.5 117.941 464.492 121.809 465.219 126.824H458.469C457.203 120.051 453.172 116.664 446.375 116.664C441.852 116.664 438.418 118.258 436.074 121.445C433.754 124.609 432.582 129.203 432.559 135.227V139.41C432.559 145.152 433.871 149.723 436.496 153.121C439.121 156.496 442.672 158.184 447.148 158.184C449.68 158.184 451.895 157.902 453.793 157.34C455.691 156.777 457.262 155.828 458.504 154.492V142.996H446.656V137.512H465.219V156.285Z" fill="black"/>
<path d="M332.715 362.293H320.691V383H313.906V331.812H330.852C336.617 331.812 341.047 333.125 344.141 335.75C347.258 338.375 348.816 342.195 348.816 347.211C348.816 350.398 347.949 353.176 346.215 355.543C344.504 357.91 342.113 359.68 339.043 360.852L351.066 382.578V383H343.824L332.715 362.293ZM320.691 356.773H331.062C334.414 356.773 337.074 355.906 339.043 354.172C341.035 352.438 342.031 350.117 342.031 347.211C342.031 344.047 341.082 341.621 339.184 339.934C337.309 338.246 334.59 337.391 331.027 337.367H320.691V356.773ZM387.242 359.34H365.059V377.48H390.828V383H358.309V331.812H390.477V337.367H365.059V353.82H387.242V359.34ZM414.312 360.184C408.523 358.52 404.305 356.48 401.656 354.066C399.031 351.629 397.719 348.629 397.719 345.066C397.719 341.035 399.324 337.707 402.535 335.082C405.77 332.434 409.965 331.109 415.121 331.109C418.637 331.109 421.766 331.789 424.508 333.148C427.273 334.508 429.406 336.383 430.906 338.773C432.43 341.164 433.191 343.777 433.191 346.613H426.406C426.406 343.52 425.422 341.094 423.453 339.336C421.484 337.555 418.707 336.664 415.121 336.664C411.793 336.664 409.191 337.402 407.316 338.879C405.465 340.332 404.539 342.359 404.539 344.961C404.539 347.047 405.418 348.816 407.176 350.27C408.957 351.699 411.969 353.012 416.211 354.207C420.477 355.402 423.805 356.727 426.195 358.18C428.609 359.609 430.391 361.285 431.539 363.207C432.711 365.129 433.297 367.391 433.297 369.992C433.297 374.141 431.68 377.469 428.445 379.977C425.211 382.461 420.887 383.703 415.473 383.703C411.957 383.703 408.676 383.035 405.629 381.699C402.582 380.34 400.227 378.488 398.562 376.145C396.922 373.801 396.102 371.141 396.102 368.164H402.887C402.887 371.258 404.023 373.707 406.297 375.512C408.594 377.293 411.652 378.184 415.473 378.184C419.035 378.184 421.766 377.457 423.664 376.004C425.562 374.551 426.512 372.57 426.512 370.062C426.512 367.555 425.633 365.621 423.875 364.262C422.117 362.879 418.93 361.52 414.312 360.184ZM448.73 362.961V383H441.98V331.812H460.859C466.461 331.812 470.844 333.242 474.008 336.102C477.195 338.961 478.789 342.746 478.789 347.457C478.789 352.426 477.23 356.258 474.113 358.953C471.02 361.625 466.578 362.961 460.789 362.961H448.73ZM448.73 357.441H460.859C464.469 357.441 467.234 356.598 469.156 354.91C471.078 353.199 472.039 350.738 472.039 347.527C472.039 344.48 471.078 342.043 469.156 340.215C467.234 338.387 464.598 337.438 461.246 337.367H448.73V357.441Z" fill="black"/>
</svg>
