<svg width="520" height="520" viewBox="0 0 520 520" fill="none" xmlns="http://www.w3.org/2000/svg">
<g filter="url(#filter0_d)">
<circle cx="436" cy="80" r="48" fill="#E6E6E6"/>
<circle cx="260" cy="48" r="48" fill="#E6E6E6"/>
<circle cx="260" cy="464" r="48" fill="#E6E6E6"/>
<circle cx="468" cy="256" r="48" fill="#E6E6E6"/>
<circle cx="52" cy="256" r="48" fill="#E6E6E6"/>
<circle cx="84" cy="80" r="48" fill="#E6E6E6"/>
<circle cx="436" cy="432" r="48" fill="#E6E6E6"/>
<circle cx="84" cy="432" r="48" fill="#E6E6E6"/>
<path d="M119 112C117.343 112 116 113.343 116 115L116 142C116 143.657 117.343 145 119 145C120.657 145 122 143.657 122 142L122 118L146 118C147.657 118 149 116.657 149 115C149 113.343 147.657 112 146 112L119 112ZM262.121 253.879L121.121 112.879L116.879 117.121L257.879 258.121L262.121 253.879Z" fill="#E7E7E7"/>
<path d="M401 112C402.657 112 404 113.343 404 115L404 142C404 143.657 402.657 145 401 145C399.343 145 398 143.657 398 142L398 118L374 118C372.343 118 371 116.657 371 115C371 113.343 372.343 112 374 112L401 112ZM257.879 253.879L398.879 112.879L403.121 117.121L262.121 258.121L257.879 253.879Z" fill="#E7E7E7"/>
<path d="M401 399C402.657 399 404 397.657 404 396L404 369C404 367.343 402.657 366 401 366C399.343 366 398 367.343 398 369L398 393L374 393C372.343 393 371 394.343 371 396C371 397.657 372.343 399 374 399L401 399ZM257.879 257.121L398.879 398.121L403.121 393.879L262.121 252.879L257.879 257.121Z" fill="#E7E7E7"/>
<path d="M120 399C118.343 399 117 397.657 117 396L117 369C117 367.343 118.343 366 120 366C121.657 366 123 367.343 123 369L123 393L147 393C148.657 393 150 394.343 150 396C150 397.657 148.657 399 147 399L120 399ZM263.121 257.121L122.121 398.121L117.879 393.879L258.879 252.879L263.121 257.121Z" fill="#E7E7E7"/>
<path d="M258.879 418.121C260.05 419.293 261.95 419.293 263.121 418.121L282.213 399.029C283.385 397.858 283.385 395.958 282.213 394.787C281.042 393.615 279.142 393.615 277.971 394.787L261 411.757L244.029 394.787C242.858 393.615 240.958 393.615 239.787 394.787C238.615 395.958 238.615 397.858 239.787 399.029L258.879 418.121ZM258 255V416H264V255H258Z" fill="#E7E7E7"/>
<path d="M263.121 92.8787C261.95 91.7071 260.05 91.7071 258.879 92.8787L239.787 111.971C238.615 113.142 238.615 115.042 239.787 116.213C240.958 117.385 242.858 117.385 244.029 116.213L261 99.2426L277.971 116.213C279.142 117.385 281.042 117.385 282.213 116.213C283.385 115.042 283.385 113.142 282.213 111.971L263.121 92.8787ZM264 256V95H258V256H264Z" fill="#E7E7E7"/>
<path d="M97.8787 253.879C96.7071 255.05 96.7071 256.95 97.8787 258.121L116.971 277.213C118.142 278.385 120.042 278.385 121.213 277.213C122.385 276.042 122.385 274.142 121.213 272.971L104.243 256L121.213 239.029C122.385 237.858 122.385 235.958 121.213 234.787C120.042 233.615 118.142 233.615 116.971 234.787L97.8787 253.879ZM261 253L100 253V259H261V253Z" fill="#E7E7E7"/>
<path d="M423.121 253.879C424.293 255.05 424.293 256.95 423.121 258.121L404.029 277.213C402.858 278.385 400.958 278.385 399.787 277.213C398.615 276.042 398.615 274.142 399.787 272.971L416.757 256L399.787 239.029C398.615 237.858 398.615 235.958 399.787 234.787C400.958 233.615 402.858 233.615 404.029 234.787L423.121 253.879ZM260 253L421 253V259H260V253Z" fill="#E7E7E7"/>
<circle cx="260" cy="256" r="64" fill="#E6E6E6"/>
</g>
<defs>
<filter id="filter0_d" x="0" y="0" width="520" height="520" filterUnits="userSpaceOnUse" color-interpolation-filters="sRGB">
<feFlood flood-opacity="0" result="BackgroundImageFix"/>
<feColorMatrix in="SourceAlpha" type="matrix" values="0 0 0 0 0 0 0 0 0 0 0 0 0 0 0 0 0 0 127 0"/>
<feOffset dy="4"/>
<feGaussianBlur stdDeviation="2"/>
<feColorMatrix type="matrix" values="0 0 0 0 0 0 0 0 0 0 0 0 0 0 0 0 0 0 0.25 0"/>
<feBlend mode="normal" in2="BackgroundImageFix" result="effect1_dropShadow"/>
<feBlend mode="normal" in="SourceGraphic" in2="effect1_dropShadow" result="shape"/>
</filter>
</defs>
</svg>
